<svg width="135" height="52" viewBox="0 0 135 52" fill="none" xmlns="http://www.w3.org/2000/svg">
<rect width="135" height="52" rx="9" fill="#222222"/>
<path d="M15 7.43899H20.9892V34.561H15V7.43899Z" fill="white"/>
<path d="M26.5463 7.43899H40.766V11.9625H32.5355V18.7001H40.4721V23.2618H32.5355V34.561H26.5463V7.43899Z" fill="white"/>
<path d="M51.2835 22.7082C50.5854 23.1409 50.0587 23.6817 49.7035 24.3306C49.3606 24.9668 49.1891 25.7048 49.1891 26.5446C49.1891 27.7407 49.5321 28.7269 50.2179 29.5031C50.9038 30.2665 51.7734 30.6483 52.8267 30.6483C53.4759 30.6483 54.076 30.5147 54.6272 30.2474C55.1783 29.9675 55.656 29.5667 56.0602 29.045L51.2835 22.7082ZM55.4355 19.9789L59.2568 24.9795C59.612 24.3942 59.8876 23.6499 60.0836 22.7464C60.2918 21.8303 60.3959 20.8441 60.3959 19.788V19.5208H65.1358C65.1113 21.4803 64.8725 23.2299 64.4193 24.7696C63.9784 26.3092 63.2986 27.6962 62.38 28.9305L66.6055 34.561H60.2122L58.7792 32.4424C57.8361 33.2949 56.8012 33.9375 55.6744 34.3701C54.5476 34.79 53.335 35 52.0367 35C49.4524 35 47.3764 34.2429 45.8087 32.7287C44.241 31.2145 43.4571 29.2168 43.4571 26.7355C43.4571 25.2086 43.8368 23.8216 44.5962 22.5746C45.3678 21.3277 46.5068 20.227 48.0133 19.2727C47.0825 18.2547 46.3966 17.2495 45.9557 16.257C45.527 15.2645 45.3127 14.2402 45.3127 13.184C45.3127 11.3899 46.0047 9.91388 47.3887 8.75596C48.7727 7.58532 50.5731 7 52.79 7C55.0681 7 56.8869 7.55987 58.2464 8.67962C59.6059 9.79936 60.2857 11.2754 60.2857 13.1077C60.2857 14.5201 59.906 15.7671 59.1466 16.8487C58.3872 17.9302 57.1502 18.9736 55.4355 19.9789ZM52.7165 17.1731C53.6228 16.6387 54.3148 16.0343 54.7925 15.3599C55.2702 14.6728 55.509 13.9602 55.509 13.2222C55.509 12.3697 55.2947 11.7144 54.866 11.2563C54.4373 10.7982 53.8188 10.5692 53.0104 10.5692C52.1776 10.5692 51.5162 10.7855 51.0263 11.2181C50.5486 11.6508 50.3098 12.2424 50.3098 12.9932C50.3098 13.5912 50.5058 14.2338 50.8977 14.9209C51.3019 15.608 51.9081 16.3588 52.7165 17.1731Z" fill="white"/>
<path d="M69.4804 7.43899H75.4696V34.561H69.4804V7.43899Z" fill="white"/>
<path d="M81.0266 7.43899H95.2464V11.9625H87.0158V18.7001H94.9524V23.2618H87.0158V34.561H81.0266V7.43899Z" fill="white"/>
<path d="M103.159 20.1753H108.417V22.7674H99.633V20.0253C101.53 18.1116 102.888 16.5371 103.705 15.3018C104.523 14.0593 104.932 12.9739 104.932 12.0456C104.932 11.4244 104.754 10.9317 104.396 10.5675C104.039 10.2033 103.558 10.0212 102.953 10.0212C102.52 10.0212 102.059 10.1105 101.571 10.289C101.083 10.4604 100.585 10.7139 100.076 11.0495L99.8495 8.20037C100.413 7.91474 101.018 7.69338 101.664 7.53628C102.31 7.37919 102.949 7.30064 103.582 7.30064C104.977 7.30064 106.087 7.6791 106.912 8.43601C107.737 9.19292 108.149 10.2176 108.149 11.5101C108.149 12.724 107.743 14.0379 106.932 15.4517C106.121 16.8584 104.864 18.433 103.159 20.1753Z" fill="white"/>
<path d="M111.443 7.54699H119.32V10.0212H114.278V12.9346C114.457 12.9061 114.639 12.8847 114.824 12.8704C115.017 12.8561 115.22 12.849 115.433 12.849C116.842 12.849 117.955 13.2881 118.773 14.1664C119.591 15.0376 120 16.2158 120 17.701C120 19.2863 119.502 20.568 118.505 21.5463C117.515 22.5246 116.209 23.0137 114.587 23.0137C114.003 23.0137 113.422 22.9602 112.845 22.8531C112.274 22.7531 111.718 22.5996 111.175 22.3925L111.319 19.6505C111.718 19.879 112.154 20.0539 112.628 20.1753C113.11 20.2967 113.608 20.3574 114.123 20.3574C114.934 20.3574 115.567 20.1396 116.02 19.704C116.474 19.2684 116.701 18.665 116.701 17.8938C116.701 17.0155 116.453 16.3443 115.959 15.8802C115.471 15.4089 114.763 15.1732 113.835 15.1732C113.47 15.1732 113.089 15.2089 112.69 15.2804C112.299 15.3518 111.883 15.4553 111.443 15.591V7.54699Z" fill="white"/>
<path d="M99 26L120 26" stroke="white"/>
<path d="M16.472 43V42.18C16.176 42.2307 15.8933 42.2187 15.624 42.144C15.3573 42.0693 15.12 41.9373 14.912 41.748C14.704 41.556 14.54 41.3107 14.42 41.012C14.3 40.7107 14.24 40.3587 14.24 39.956C14.24 39.5533 14.3 39.2 14.42 38.896C14.54 38.592 14.704 38.3427 14.912 38.148C15.12 37.9533 15.3573 37.8173 15.624 37.74C15.8933 37.6627 16.176 37.6493 16.472 37.7V37.24H17.428V37.7C17.724 37.6493 18.0067 37.6627 18.276 37.74C18.5453 37.8173 18.784 37.9533 18.992 38.148C19.2 38.3427 19.364 38.592 19.484 38.896C19.6067 39.2 19.668 39.5533 19.668 39.956C19.668 40.3587 19.6067 40.7107 19.484 41.012C19.364 41.3107 19.2 41.556 18.992 41.748C18.784 41.9373 18.5453 42.0693 18.276 42.144C18.0067 42.2187 17.724 42.2307 17.428 42.18V43H16.472ZM16.472 41.296V38.568C16.24 38.5307 16.0427 38.5467 15.88 38.616C15.72 38.6827 15.5907 38.7853 15.492 38.924C15.396 39.06 15.3267 39.2187 15.284 39.4C15.2413 39.5813 15.22 39.7667 15.22 39.956C15.22 40.1453 15.2413 40.328 15.284 40.504C15.3267 40.68 15.396 40.8347 15.492 40.968C15.5907 41.0987 15.72 41.1947 15.88 41.256C16.0427 41.3173 16.24 41.3307 16.472 41.296ZM17.428 41.296C17.6627 41.3307 17.86 41.3173 18.02 41.256C18.18 41.192 18.3093 41.0947 18.408 40.964C18.5067 40.8333 18.5773 40.6827 18.62 40.512C18.6653 40.3413 18.688 40.1653 18.688 39.984C18.688 39.8027 18.6653 39.6213 18.62 39.44C18.5773 39.256 18.5067 39.0933 18.408 38.952C18.3093 38.808 18.18 38.6987 18.02 38.624C17.86 38.5493 17.6627 38.5307 17.428 38.568V41.296ZM25.0903 43H24.1143V38.94L21.4423 43H20.4663V37.24H21.4423V41.3L24.1143 37.24H25.0903V43ZM26.2084 43V37.24H27.1724V39.664H29.9004V37.24H30.8604V43H29.9004V40.568H27.1724V43H26.2084ZM31.5819 43L33.3979 37.24H34.8099L36.6259 43H35.6339L33.9859 37.832H34.2019L32.5739 43H31.5819ZM32.5939 41.752V40.852H35.6179V41.752H32.5939ZM37.3491 43V37.24H38.3131V39.664H41.0411V37.24H42.0011V43H41.0411V40.568H38.3131V43H37.3491ZM45.5585 43.12C44.9825 43.12 44.4892 42.9947 44.0785 42.744C43.6678 42.4907 43.3518 42.1387 43.1305 41.688C42.9118 41.2373 42.8025 40.7147 42.8025 40.12C42.8025 39.5253 42.9118 39.0027 43.1305 38.552C43.3518 38.1013 43.6678 37.7507 44.0785 37.5C44.4892 37.2467 44.9825 37.12 45.5585 37.12C46.2225 37.12 46.7758 37.2867 47.2185 37.62C47.6612 37.9507 47.9718 38.3973 48.1505 38.96L47.1785 39.228C47.0665 38.852 46.8758 38.5587 46.6065 38.348C46.3372 38.1347 45.9878 38.028 45.5585 38.028C45.1718 38.028 44.8492 38.1147 44.5905 38.288C44.3345 38.4613 44.1412 38.7053 44.0105 39.02C43.8825 39.332 43.8172 39.6987 43.8145 40.12C43.8145 40.5413 43.8785 40.9093 44.0065 41.224C44.1372 41.536 44.3318 41.7787 44.5905 41.952C44.8492 42.1253 45.1718 42.212 45.5585 42.212C45.9878 42.212 46.3372 42.1053 46.6065 41.892C46.8758 41.6787 47.0665 41.3853 47.1785 41.012L48.1505 41.28C47.9718 41.8427 47.6612 42.2907 47.2185 42.624C46.7758 42.9547 46.2225 43.12 45.5585 43.12ZM49.0208 43V37.24H49.9848V39.252H51.4008C51.4541 39.252 51.5261 39.2547 51.6168 39.26C51.7074 39.2627 51.7901 39.2707 51.8648 39.284C52.1954 39.3347 52.4688 39.4453 52.6848 39.616C52.9034 39.7867 53.0648 40.0027 53.1688 40.264C53.2754 40.5227 53.3288 40.8093 53.3288 41.124C53.3288 41.4413 53.2754 41.7307 53.1688 41.992C53.0648 42.2507 52.9034 42.4653 52.6848 42.636C52.4688 42.8067 52.1954 42.9173 51.8648 42.968C51.7901 42.9787 51.7074 42.9867 51.6168 42.992C51.5288 42.9973 51.4568 43 51.4008 43H49.0208ZM49.9848 42.096H51.3608C51.4168 42.096 51.4768 42.0933 51.5408 42.088C51.6074 42.0827 51.6701 42.0733 51.7288 42.06C51.8861 42.02 52.0101 41.9493 52.1008 41.848C52.1941 41.7467 52.2594 41.632 52.2968 41.504C52.3368 41.3733 52.3568 41.2467 52.3568 41.124C52.3568 41.0013 52.3368 40.876 52.2968 40.748C52.2594 40.62 52.1941 40.5053 52.1008 40.404C52.0101 40.3027 51.8861 40.232 51.7288 40.192C51.6701 40.176 51.6074 40.1653 51.5408 40.16C51.4768 40.1547 51.4168 40.152 51.3608 40.152H49.9848V42.096ZM53.9048 43V37.24H54.8688V43H53.9048ZM57.2754 43.96V42.096C57.4621 42.096 57.6181 42.0493 57.7434 41.956C57.8688 41.8627 57.9688 41.7333 58.0434 41.568C58.1208 41.4027 58.1808 41.2107 58.2234 40.992C58.2661 40.7707 58.2994 40.536 58.3234 40.288C58.3528 39.96 58.3781 39.6387 58.3994 39.324C58.4208 39.0067 58.4408 38.6787 58.4594 38.34C58.4808 37.9987 58.5048 37.6293 58.5314 37.232L62.2874 37.24V42.096H62.7194V43.96H61.7594V43H58.2394V43.96H57.2754ZM58.7754 42.096H61.3234V38.144L59.4114 38.136C59.3928 38.416 59.3768 38.6773 59.3634 38.92C59.3528 39.16 59.3381 39.404 59.3194 39.652C59.3034 39.9 59.2808 40.1707 59.2514 40.464C59.2248 40.752 59.1954 40.992 59.1634 41.184C59.1341 41.376 59.0901 41.5427 59.0314 41.684C58.9728 41.8227 58.8874 41.96 58.7754 42.096ZM63.1991 43V42.192C63.3271 42.2 63.4351 42.1907 63.5231 42.164C63.6111 42.1347 63.6844 42.08 63.7431 42C63.8044 41.9173 63.8577 41.8013 63.9031 41.652C63.9484 41.5 63.9924 41.3093 64.0351 41.08C64.0964 40.752 64.1471 40.4107 64.1871 40.056C64.2297 39.6987 64.2657 39.348 64.2951 39.004C64.3244 38.6573 64.3471 38.332 64.3631 38.028C64.3791 37.724 64.3924 37.4613 64.4031 37.24H68.2591V43H67.2951V38.144H65.2951C65.2817 38.3227 65.2657 38.5387 65.2471 38.792C65.2311 39.0427 65.2084 39.3147 65.1791 39.608C65.1524 39.9013 65.1177 40.2053 65.0751 40.52C65.0351 40.8347 64.9857 41.144 64.9271 41.448C64.8737 41.7253 64.8097 41.9747 64.7351 42.196C64.6604 42.4147 64.5604 42.596 64.4351 42.74C64.3124 42.8813 64.1511 42.976 63.9511 43.024C63.7537 43.072 63.5031 43.064 63.1991 43ZM73.5403 43H72.5803V40.988H71.0923L70.6803 40.952C70.1896 40.872 69.8256 40.664 69.5883 40.328C69.351 39.9893 69.2323 39.5853 69.2323 39.116C69.2323 38.7987 69.2856 38.5107 69.3923 38.252C69.499 37.9907 69.6603 37.7747 69.8763 37.604C70.0923 37.4333 70.367 37.3227 70.7003 37.272C70.7776 37.2587 70.859 37.2507 70.9443 37.248C71.0323 37.2427 71.1043 37.24 71.1603 37.24H73.5403V43ZM70.2323 43H69.1403L70.3883 40.44L71.3683 40.656L70.2323 43ZM72.5803 40.088V38.144H71.2003C71.147 38.144 71.087 38.1467 71.0203 38.152C70.9536 38.1547 70.8923 38.164 70.8363 38.18C70.6763 38.22 70.5496 38.2907 70.4563 38.392C70.3656 38.4933 70.3016 38.6093 70.2643 38.74C70.227 38.868 70.2083 38.9933 70.2083 39.116C70.2083 39.2387 70.227 39.364 70.2643 39.492C70.3016 39.62 70.3656 39.7347 70.4563 39.836C70.5496 39.9373 70.6763 40.008 70.8363 40.048C70.8923 40.064 70.9536 40.0747 71.0203 40.08C71.087 40.0853 71.147 40.088 71.2003 40.088H72.5803ZM75.9551 43.96V42.096C76.1418 42.096 76.2978 42.0493 76.4231 41.956C76.5485 41.8627 76.6485 41.7333 76.7231 41.568C76.8005 41.4027 76.8605 41.2107 76.9031 40.992C76.9458 40.7707 76.9791 40.536 77.0031 40.288C77.0325 39.96 77.0578 39.6387 77.0791 39.324C77.1005 39.0067 77.1205 38.6787 77.1391 38.34C77.1605 37.9987 77.1845 37.6293 77.2111 37.232L80.9671 37.24V42.096H81.3991V43.96H80.4391V43H76.9191V43.96H75.9551ZM77.4551 42.096H80.0031V38.144L78.0911 38.136C78.0725 38.416 78.0565 38.6773 78.0431 38.92C78.0325 39.16 78.0178 39.404 77.9991 39.652C77.9831 39.9 77.9605 40.1707 77.9311 40.464C77.9045 40.752 77.8751 40.992 77.8431 41.184C77.8138 41.376 77.7698 41.5427 77.7111 41.684C77.6525 41.8227 77.5671 41.96 77.4551 42.096ZM82.2788 43V37.24H84.5628C84.9521 37.24 85.2708 37.3187 85.5188 37.476C85.7694 37.6307 85.9548 37.8293 86.0748 38.072C86.1974 38.3147 86.2588 38.5653 86.2588 38.824C86.2588 39.1413 86.1828 39.4107 86.0308 39.632C85.8814 39.8533 85.6774 40.0027 85.4188 40.08V39.88C85.7814 39.9627 86.0561 40.1347 86.2428 40.396C86.4321 40.6573 86.5268 40.9547 86.5268 41.288C86.5268 41.6293 86.4614 41.928 86.3307 42.184C86.2001 42.44 86.0054 42.64 85.7468 42.784C85.4908 42.928 85.1734 43 84.7948 43H82.2788ZM83.2548 42.092H84.6748C84.8428 42.092 84.9934 42.0587 85.1268 41.992C85.2601 41.9227 85.3641 41.8267 85.4388 41.704C85.5161 41.5787 85.5548 41.4307 85.5548 41.26C85.5548 41.1053 85.5214 40.9667 85.4548 40.844C85.3881 40.7213 85.2908 40.624 85.1628 40.552C85.0348 40.4773 84.8814 40.44 84.7028 40.44H83.2548V42.092ZM83.2548 39.54H84.5508C84.6894 39.54 84.8134 39.5133 84.9228 39.46C85.0321 39.4067 85.1188 39.328 85.1828 39.224C85.2468 39.12 85.2788 38.992 85.2788 38.84C85.2788 38.64 85.2148 38.4733 85.0868 38.34C84.9588 38.2067 84.7801 38.14 84.5508 38.14H83.2548V39.54ZM91.9496 43H90.9736V38.94L88.3016 43H87.3256V37.24H88.3016V41.3L90.9736 37.24H91.9496V43ZM92.5878 43L94.7558 40.064L92.7558 37.24H93.9078L95.6878 39.844V37.24H96.6518V39.844L98.4318 37.24H99.5838L97.5838 40.064L99.7518 43H98.5638L96.6518 40.38V43H95.6878V40.38L93.7798 43H92.5878ZM100.388 43V37.24H104.108V38.144H101.352V39.564H103.628V40.468H101.352V42.096H104.108V43H100.388ZM105.068 43V37.24H106.032V39.664H108.76V37.24H109.72V43H108.76V40.568H106.032V43H105.068ZM115.465 43H114.489V38.94L111.817 43H110.841V37.24H111.817V41.3L114.489 37.24H115.465V43ZM120.743 43H119.783V40.988H118.295L117.883 40.952C117.393 40.872 117.029 40.664 116.791 40.328C116.554 39.9893 116.435 39.5853 116.435 39.116C116.435 38.7987 116.489 38.5107 116.595 38.252C116.702 37.9907 116.863 37.7747 117.079 37.604C117.295 37.4333 117.57 37.3227 117.903 37.272C117.981 37.2587 118.062 37.2507 118.147 37.248C118.235 37.2427 118.307 37.24 118.363 37.24H120.743V43ZM117.435 43H116.343L117.591 40.44L118.571 40.656L117.435 43ZM119.783 40.088V38.144H118.403C118.35 38.144 118.29 38.1467 118.223 38.152C118.157 38.1547 118.095 38.164 118.039 38.18C117.879 38.22 117.753 38.2907 117.659 38.392C117.569 38.4933 117.505 38.6093 117.467 38.74C117.43 38.868 117.411 38.9933 117.411 39.116C117.411 39.2387 117.43 39.364 117.467 39.492C117.505 39.62 117.569 39.7347 117.659 39.836C117.753 39.9373 117.879 40.008 118.039 40.048C118.095 40.064 118.157 40.0747 118.223 40.08C118.29 40.0853 118.35 40.088 118.403 40.088H119.783Z" fill="white"/>
</svg>
