<svg width="214" height="76" viewBox="0 0 214 76" fill="none" xmlns="http://www.w3.org/2000/svg">
<path d="M1.99023 1.13368H13.9132V55.1266H1.99023V1.13368Z" fill="white"/>
<path d="M24.9759 1.13368H53.2837V10.1388H36.8988V23.5516H52.6985V32.6327H36.8988V55.1266H24.9759V1.13368Z" fill="white"/>
<path d="M74.2213 31.5308C72.8315 32.3921 71.783 33.4686 71.076 34.7605C70.3932 36.0271 70.0519 37.4963 70.0519 39.1681C70.0519 41.5492 70.7346 43.5124 72.1 45.0575C73.4654 46.5774 75.1966 47.3373 77.2934 47.3373C78.5857 47.3373 79.7804 47.0713 80.8776 46.5394C81.9748 45.9821 82.9257 45.1842 83.7304 44.1456L74.2213 31.5308ZM82.4869 26.0973L90.0941 36.0524C90.8012 34.8872 91.3498 33.4053 91.7399 31.6068C92.1544 29.783 92.3617 27.8198 92.3617 25.7174V25.1854H101.798C101.749 29.0864 101.273 32.5694 100.371 35.6344C99.4935 38.6995 98.1403 41.4605 96.3116 43.9176L104.723 55.1266H91.9959L89.1432 50.909C87.2658 52.6062 85.2055 53.8854 82.9623 54.7466C80.7191 55.5825 78.3053 56.0005 75.7208 56.0005C70.5761 56.0005 66.4433 54.4933 63.3224 51.4789C60.2015 48.4646 58.641 44.4876 58.641 39.5481C58.641 36.5083 59.3968 33.7473 60.9085 31.2648C62.4446 28.7824 64.7122 26.5913 67.7112 24.6915C65.8581 22.665 64.4927 20.6638 63.615 18.688C62.7616 16.7122 62.3349 14.6731 62.3349 12.5706C62.3349 8.99894 63.7125 6.06055 66.4677 3.75544C69.2229 1.42499 72.8071 0.259766 77.2203 0.259766C81.7554 0.259766 85.3762 1.37433 88.0826 3.60345C90.789 5.83257 92.1422 8.77096 92.1422 12.4186C92.1422 15.2304 91.3864 17.7128 89.8747 19.8659C88.363 22.019 85.9004 24.0962 82.4869 26.0973ZM77.074 20.5119C78.8783 19.448 80.2559 18.2447 81.2068 16.9022C82.1577 15.5343 82.6331 14.1158 82.6331 12.6466C82.6331 10.9494 82.2065 9.64488 81.3531 8.73297C80.4997 7.82105 79.2684 7.3651 77.6592 7.3651C76.0012 7.3651 74.6845 7.79572 73.7092 8.65697C72.7583 9.51822 72.2829 10.6961 72.2829 12.1906C72.2829 13.3812 72.673 14.6604 73.4532 16.0283C74.2578 17.3961 75.4648 18.8907 77.074 20.5119Z" fill="white"/>
<path d="M110.447 1.13368H122.369V55.1266H110.447V1.13368Z" fill="white"/>
<path d="M133.432 1.13368H161.74V10.1388H145.355V23.5516H161.155V32.6327H145.355V55.1266H133.432V1.13368Z" fill="white"/>
<path d="M177.492 26.4884H187.959V31.6485H170.473V26.1898C174.249 22.3802 176.951 19.2457 178.58 16.7865C180.208 14.313 181.022 12.1523 181.022 10.3043C181.022 9.06757 180.666 8.08672 179.955 7.36174C179.243 6.63676 178.286 6.27427 177.081 6.27427C176.219 6.27427 175.303 6.45196 174.331 6.80735C173.36 7.14851 172.368 7.65315 171.355 8.32127L170.904 2.64938C172.026 2.08077 173.23 1.6401 174.516 1.32737C175.802 1.01463 177.075 0.858263 178.333 0.858263C181.111 0.858263 183.321 1.61167 184.963 3.11849C186.605 4.6253 187.426 6.66519 187.426 9.23815C187.426 11.6547 186.618 14.2704 185.004 17.085C183.389 19.8854 180.885 23.0198 177.492 26.4884Z" fill="white"/>
<path d="M193.983 1.34869H209.663V6.27427H199.627V12.0741C199.983 12.0172 200.345 11.9746 200.715 11.9462C201.098 11.9177 201.502 11.9035 201.926 11.9035C204.731 11.9035 206.947 12.7778 208.576 14.5262C210.204 16.2605 211.018 18.606 211.018 21.5628C211.018 24.7186 210.026 27.2702 208.042 29.2177C206.072 31.1652 203.472 32.1389 200.243 32.1389C199.08 32.1389 197.923 32.0323 196.774 31.8191C195.638 31.6201 194.53 31.3144 193.449 30.9022L193.737 25.4435C194.53 25.8984 195.399 26.2467 196.343 26.4884C197.301 26.73 198.293 26.8509 199.319 26.8509C200.934 26.8509 202.193 26.4173 203.096 25.5502C203.999 24.683 204.45 23.4818 204.45 21.9466C204.45 20.1981 203.958 18.8619 202.972 17.9379C202.001 16.9997 200.592 16.5306 198.744 16.5306C198.019 16.5306 197.26 16.6017 196.466 16.7438C195.686 16.886 194.859 17.0921 193.983 17.3622V1.34869Z" fill="white"/>
<path d="M169.213 38.084L211.018 38.084" stroke="white" stroke-width="1.99075"/>
<path d="M4.92113 72V70.3676C4.33187 70.4685 3.76915 70.4446 3.23298 70.2959C2.70211 70.1473 2.22964 69.8845 1.81556 69.5076C1.40149 69.1254 1.075 68.637 0.836114 68.0424C0.597225 67.4425 0.47778 66.7418 0.47778 65.9402C0.47778 65.1386 0.597225 64.4352 0.836114 63.83C1.075 63.2248 1.40149 62.7284 1.81556 62.3409C2.22964 61.9534 2.70211 61.6826 3.23298 61.5287C3.76915 61.3747 4.33187 61.3482 4.92113 61.449V60.5333H6.82429V61.449C7.41355 61.3482 7.97627 61.3747 8.51244 61.5287C9.04861 61.6826 9.52374 61.9534 9.93782 62.3409C10.3519 62.7284 10.6784 63.2248 10.9173 63.83C11.1615 64.4352 11.2836 65.1386 11.2836 65.9402C11.2836 66.7418 11.1615 67.4425 10.9173 68.0424C10.6784 68.637 10.3519 69.1254 9.93782 69.5076C9.52374 69.8845 9.04861 70.1473 8.51244 70.2959C7.97627 70.4446 7.41355 70.4685 6.82429 70.3676V72H4.92113ZM4.92113 68.6078V63.177C4.45928 63.1027 4.06644 63.1345 3.74261 63.2726C3.42409 63.4053 3.16662 63.6097 2.9702 63.8857C2.77908 64.1565 2.64106 64.4723 2.55612 64.8333C2.47118 65.1943 2.42871 65.5632 2.42871 65.9402C2.42871 66.3171 2.47118 66.6807 2.55612 67.0311C2.64106 67.3815 2.77908 67.6894 2.9702 67.9548C3.16662 68.2149 3.42409 68.406 3.74261 68.5281C4.06644 68.6502 4.45928 68.6768 4.92113 68.6078ZM6.82429 68.6078C7.29145 68.6768 7.68429 68.6502 8.00281 68.5281C8.32133 68.4007 8.5788 68.207 8.77522 67.9468C8.97164 67.6867 9.11232 67.3868 9.19726 67.047C9.2875 66.7073 9.33263 66.3569 9.33263 65.9959C9.33263 65.6349 9.2875 65.2739 9.19726 64.9129C9.11232 64.5466 8.97164 64.2228 8.77522 63.9415C8.5788 63.6548 8.32133 63.4371 8.00281 63.2885C7.68429 63.1398 7.29145 63.1027 6.82429 63.177V68.6078ZM22.0779 72H20.1349V63.9176L14.8156 72H12.8727V60.5333H14.8156V68.6157L20.1349 60.5333H22.0779V72ZM24.3039 72V60.5333H26.223V65.3589H31.6538V60.5333H33.5649V72H31.6538V67.1585H26.223V72H24.3039ZM35.0011 72L38.6163 60.5333H41.4272L45.0424 72H43.0676L39.7868 61.7118H40.2168L36.9759 72H35.0011ZM37.0157 69.5155V67.7239H43.0357V69.5155H37.0157ZM46.4821 72V60.5333H48.4012V65.3589H53.8319V60.5333H55.7431V72H53.8319V67.1585H48.4012V72H46.4821ZM62.825 72.2389C61.6784 72.2389 60.6963 71.9894 59.8787 71.4904C59.0612 70.986 58.4321 70.2853 57.9915 69.3881C57.5562 68.491 57.3385 67.4505 57.3385 66.2666C57.3385 65.0828 57.5562 64.0423 57.9915 63.1452C58.4321 62.248 59.0612 61.5499 59.8787 61.0509C60.6963 60.5466 61.6784 60.2944 62.825 60.2944C64.1469 60.2944 65.2484 60.6262 66.1297 61.2898C67.0109 61.948 67.6294 62.8372 67.9851 63.9574L66.05 64.4909C65.8271 63.7424 65.4475 63.1584 64.9113 62.739C64.3752 62.3143 63.6797 62.102 62.825 62.102C62.0553 62.102 61.4129 62.2745 60.898 62.6196C60.3884 62.9647 60.0035 63.4504 59.7434 64.0768C59.4885 64.6979 59.3585 65.4279 59.3532 66.2666C59.3532 67.1054 59.4806 67.838 59.7354 68.4644C59.9955 69.0855 60.383 69.5686 60.898 69.9137C61.4129 70.2588 62.0553 70.4313 62.825 70.4313C63.6797 70.4313 64.3752 70.2189 64.9113 69.7943C65.4475 69.3696 65.8271 68.7856 66.05 68.0424L67.9851 68.5759C67.6294 69.696 67.0109 70.5879 66.1297 71.2515C65.2484 71.9098 64.1469 72.2389 62.825 72.2389ZM69.7175 72V60.5333H71.6366V64.5387H74.4555C74.5617 64.5387 74.705 64.544 74.8855 64.5546C75.066 64.5599 75.2305 64.5758 75.3792 64.6024C76.0375 64.7032 76.5816 64.9236 77.0116 65.2633C77.4469 65.6031 77.7681 66.0331 77.9751 66.5533C78.1875 67.0683 78.2936 67.6389 78.2936 68.2654C78.2936 68.8971 78.1875 69.4731 77.9751 69.9933C77.7681 70.5083 77.4469 70.9356 77.0116 71.2754C76.5816 71.6151 76.0375 71.8354 75.3792 71.9363C75.2305 71.9575 75.066 71.9735 74.8855 71.9841C74.7103 71.9947 74.567 72 74.4555 72H69.7175ZM71.6366 70.2004H74.3759C74.4873 70.2004 74.6068 70.1951 74.7342 70.1844C74.8669 70.1738 74.9917 70.1552 75.1084 70.1287C75.4217 70.0491 75.6685 69.9084 75.849 69.7067C76.0348 69.5049 76.1649 69.2767 76.2392 69.0218C76.3188 68.7617 76.3586 68.5096 76.3586 68.2654C76.3586 68.0212 76.3188 67.7717 76.2392 67.5168C76.1649 67.262 76.0348 67.0337 75.849 66.832C75.6685 66.6303 75.4217 66.4896 75.1084 66.41C74.9917 66.3781 74.8669 66.3569 74.7342 66.3463C74.6068 66.3357 74.4873 66.3303 74.3759 66.3303H71.6366V70.2004ZM79.4403 72V60.5333H81.3594V72H79.4403ZM86.1505 73.9111V70.2004C86.5221 70.2004 86.8327 70.1075 87.0822 69.9217C87.3317 69.7359 87.5308 69.4784 87.6794 69.1492C87.8333 68.8201 87.9528 68.4379 88.0377 68.0026C88.1227 67.562 88.189 67.0948 88.2368 66.6011C88.2952 65.9481 88.3456 65.3084 88.3881 64.682C88.4306 64.0503 88.4704 63.3973 88.5075 62.7231C88.55 62.0436 88.5978 61.3084 88.6509 60.5174L96.1281 60.5333V70.2004H96.9881V73.9111H95.077V72H88.0696V73.9111H86.1505ZM89.1366 70.2004H94.2091V62.3329L90.4027 62.317C90.3656 62.8744 90.3337 63.3947 90.3072 63.8777C90.286 64.3555 90.2568 64.8413 90.2196 65.335C90.1877 65.8287 90.1426 66.3675 90.0842 66.9515C90.0311 67.5248 89.9727 68.0026 89.909 68.3848C89.8506 68.767 89.763 69.0988 89.6463 69.3802C89.5295 69.6562 89.3596 69.9296 89.1366 70.2004ZM97.9429 72V70.3915C98.1978 70.4074 98.4128 70.3888 98.588 70.3357C98.7631 70.2773 98.9091 70.1685 99.0259 70.0093C99.148 69.8447 99.2542 69.6138 99.3444 69.3165C99.4347 69.0139 99.5223 68.6343 99.6072 68.1778C99.7293 67.5248 99.8302 66.8453 99.9098 66.1392C99.9947 65.4279 100.066 64.7298 100.125 64.045C100.183 63.3548 100.228 62.7072 100.26 62.102C100.292 61.4968 100.319 60.9739 100.34 60.5333H108.016V72H106.097V62.3329H102.116C102.089 62.6886 102.057 63.1186 102.02 63.6229C101.988 64.1219 101.943 64.6634 101.885 65.2474C101.832 65.8313 101.763 66.4365 101.678 67.0629C101.598 67.6894 101.5 68.3052 101.383 68.9104C101.277 69.4625 101.149 69.9588 101.001 70.3994C100.852 70.8347 100.653 71.1957 100.404 71.4824C100.159 71.7638 99.8381 71.9522 99.44 72.0478C99.0471 72.1433 98.5481 72.1274 97.9429 72ZM118.53 72H116.619V67.9946H113.656L112.836 67.9229C111.859 67.7637 111.135 67.3496 110.662 66.6807C110.19 66.0065 109.954 65.2023 109.954 64.2679C109.954 63.6362 110.06 63.0629 110.272 62.5479C110.485 62.0277 110.806 61.5977 111.236 61.2579C111.666 60.9182 112.212 60.6979 112.876 60.597C113.03 60.5705 113.192 60.5545 113.362 60.5492C113.537 60.5386 113.68 60.5333 113.792 60.5333H118.53V72ZM111.944 72H109.77L112.255 66.9037L114.206 67.3337L111.944 72ZM116.619 66.2029V62.3329H113.871C113.765 62.3329 113.646 62.3382 113.513 62.3489C113.38 62.3542 113.258 62.3727 113.147 62.4046C112.828 62.4842 112.576 62.6249 112.39 62.8266C112.21 63.0284 112.082 63.2593 112.008 63.5194C111.934 63.7742 111.897 64.0237 111.897 64.2679C111.897 64.5121 111.934 64.7616 112.008 65.0165C112.082 65.2713 112.21 65.4995 112.39 65.7013C112.576 65.903 112.828 66.0437 113.147 66.1233C113.258 66.1552 113.38 66.1764 113.513 66.187C113.646 66.1976 113.765 66.2029 113.871 66.2029H116.619ZM123.337 73.9111V70.2004C123.709 70.2004 124.019 70.1075 124.269 69.9217C124.518 69.7359 124.717 69.4784 124.866 69.1492C125.02 68.8201 125.139 68.4379 125.224 68.0026C125.309 67.562 125.376 67.0948 125.423 66.6011C125.482 65.9481 125.532 65.3084 125.575 64.682C125.617 64.0503 125.657 63.3973 125.694 62.7231C125.737 62.0436 125.784 61.3084 125.837 60.5174L133.315 60.5333V70.2004H134.175V73.9111H132.264V72H125.256V73.9111H123.337ZM126.323 70.2004H131.396V62.3329L127.589 62.317C127.552 62.8744 127.52 63.3947 127.494 63.8777C127.473 64.3555 127.443 64.8413 127.406 65.335C127.374 65.8287 127.329 66.3675 127.271 66.9515C127.218 67.5248 127.159 68.0026 127.096 68.3848C127.037 68.767 126.95 69.0988 126.833 69.3802C126.716 69.6562 126.546 69.9296 126.323 70.2004ZM135.926 72V60.5333H140.473C141.248 60.5333 141.882 60.6899 142.376 61.0031C142.875 61.311 143.244 61.7065 143.483 62.1896C143.727 62.6727 143.849 63.1717 143.849 63.6866C143.849 64.3184 143.698 64.8545 143.395 65.2952C143.098 65.7358 142.692 66.0331 142.177 66.187V65.7889C142.899 65.9534 143.446 66.2958 143.817 66.8161C144.194 67.3363 144.383 67.9283 144.383 68.5918C144.383 69.2713 144.252 69.8659 143.992 70.3755C143.732 70.8852 143.345 71.2833 142.83 71.57C142.32 71.8567 141.688 72 140.935 72H135.926ZM137.869 70.1924H140.696C141.03 70.1924 141.33 70.126 141.595 69.9933C141.861 69.8553 142.068 69.6642 142.217 69.42C142.371 69.1705 142.448 68.8759 142.448 68.5361C142.448 68.2282 142.381 67.9521 142.248 67.7079C142.116 67.4637 141.922 67.27 141.667 67.1266C141.412 66.978 141.107 66.9037 140.751 66.9037H137.869V70.1924ZM137.869 65.112H140.449C140.725 65.112 140.972 65.0589 141.189 64.9528C141.407 64.8466 141.58 64.69 141.707 64.4829C141.834 64.2759 141.898 64.0211 141.898 63.7185C141.898 63.3203 141.771 62.9885 141.516 62.7231C141.261 62.4577 140.905 62.325 140.449 62.325H137.869V65.112ZM155.178 72H153.235V63.9176L147.916 72H145.973V60.5333H147.916V68.6157L153.235 60.5333H155.178V72ZM156.449 72L160.764 66.1552L156.783 60.5333H159.076L162.62 65.7172V60.5333H164.539V65.7172L168.082 60.5333H170.376L166.394 66.1552L170.71 72H168.345L164.539 66.7842V72H162.62V66.7842L158.822 72H156.449ZM171.977 72V60.5333H179.383V62.3329H173.896V65.1598H178.427V66.9594H173.896V70.2004H179.383V72H171.977ZM181.293 72V60.5333H183.212V65.3589H188.643V60.5333H190.554V72H188.643V67.1585H183.212V72H181.293ZM201.992 72H200.049V63.9176L194.73 72H192.787V60.5333H194.73V68.6157L200.049 60.5333H201.992V72ZM212.499 72H210.588V67.9946H207.626L206.806 67.9229C205.829 67.7637 205.104 67.3496 204.632 66.6807C204.159 66.0065 203.923 65.2023 203.923 64.2679C203.923 63.6362 204.029 63.0629 204.242 62.5479C204.454 62.0277 204.775 61.5977 205.205 61.2579C205.635 60.9182 206.182 60.6979 206.846 60.597C207 60.5705 207.161 60.5545 207.331 60.5492C207.507 60.5386 207.65 60.5333 207.761 60.5333H212.499V72ZM205.914 72H203.74L206.224 66.9037L208.175 67.3337L205.914 72ZM210.588 66.2029V62.3329H207.841C207.735 62.3329 207.615 62.3382 207.483 62.3489C207.35 62.3542 207.228 62.3727 207.116 62.4046C206.798 62.4842 206.546 62.6249 206.36 62.8266C206.179 63.0284 206.052 63.2593 205.978 63.5194C205.903 63.7742 205.866 64.0237 205.866 64.2679C205.866 64.5121 205.903 64.7616 205.978 65.0165C206.052 65.2713 206.179 65.4995 206.36 65.7013C206.546 65.903 206.798 66.0437 207.116 66.1233C207.228 66.1552 207.35 66.1764 207.483 66.187C207.615 66.1976 207.735 66.2029 207.841 66.2029H210.588Z" fill="white"/>
</svg>
